<svg xmlns:mydata="http://www.w3.org/2000/svg" mydata:contrastcolor="ffffff" mydata:template="Contrast" mydata:presentation="2.5" mydata:layouttype="undefined" mydata:specialfontid="undefined" mydata:id1="130" mydata:id2="063" mydata:companyname="lmsedu" mydata:companytagline="Your key to academic excellence." version="1.1" xmlns="http://www.w3.org/2000/svg" xmlns:xlink="http://www.w3.org/1999/xlink" viewBox="0 0 550 470"><g fill="#702082" fill-rule="nonzero" stroke="none" stroke-width="1" stroke-linecap="butt" stroke-linejoin="miter" stroke-miterlimit="10" stroke-dasharray="" stroke-dashoffset="0" font-family="none" font-weight="none" font-size="none" text-anchor="none" style="mix-blend-mode: normal"><g data-paper-data="{&quot;isGlobalGroup&quot;:true,&quot;bounds&quot;:{&quot;x&quot;:80.5202953312031,&quot;y&quot;:115.00000000000001,&quot;width&quot;:388.9594093375938,&quot;height&quot;:240}}"><g data-paper-data="{&quot;isSecondaryText&quot;:true}"><path d="M86.1779,350.58912v4.16627h-2.24095v-4.11892l-3.41665,-6.80175h2.43032l2.13048,4.56869l2.17782,-4.56869h2.34353z" data-paper-data="{&quot;glyphName&quot;:&quot;Y&quot;,&quot;glyphIndex&quot;:0,&quot;firstGlyphOfWord&quot;:true,&quot;word&quot;:1}"></path><path d="M102.72197,349.29506c0,1.89902 -0.40111,3.32197 -1.20333,4.26885c-0.80222,0.94688 -1.96872,1.42032 -3.49951,1.42032c-1.61495,0 -2.8025,-0.49843 -3.56263,-1.49528c-0.76013,-0.99685 -1.1402,-2.39481 -1.1402,-4.19388c0,-1.80959 0.38007,-3.21018 1.1402,-4.20177c0.76013,-0.99159 1.94768,-1.48739 3.56263,-1.48739c1.62548,0 2.81565,0.4958 3.57052,1.48739c0.75487,0.99159 1.13231,2.39218 1.13231,4.20177zM100.42579,349.29506c0,-1.29407 -0.1828,-2.237 -0.5484,-2.8288c-0.3656,-0.5918 -0.98502,-0.8877 -1.85825,-0.8877c-0.87323,0 -1.49265,0.2959 -1.85825,0.8877c-0.3656,0.5918 -0.5484,1.53473 -0.5484,2.8288c0,1.29407 0.18543,2.237 0.55629,2.8288c0.37086,0.5918 0.98765,0.8877 1.85036,0.8877c0.87323,0 1.49265,-0.2959 1.85825,-0.8877c0.3656,-0.5918 0.5484,-1.53473 0.5484,-2.8288z" data-paper-data="{&quot;glyphName&quot;:&quot;O&quot;,&quot;glyphIndex&quot;:1,&quot;word&quot;:1}"></path><path d="M116.93042,350.19459c0,1.70964 -0.34719,2.93795 -1.04157,3.68494c-0.69438,0.74698 -1.84378,1.12047 -3.44822,1.12047c-1.58865,0 -2.73411,-0.36955 -3.43638,-1.10864c-0.70227,-0.73909 -1.0534,-1.97135 -1.0534,-3.69677v-6.35987h2.22517v6.20206c0,0.74172 0.07102,1.32563 0.21305,1.75173c0.14203,0.4261 0.36823,0.73909 0.6786,0.93899c0.31037,0.1999 0.76276,0.29984 1.35719,0.29984c0.84693,0 1.43873,-0.22488 1.7754,-0.67465c0.33667,-0.44977 0.505,-1.21122 0.505,-2.28435v-6.23362h2.22517z" data-paper-data="{&quot;glyphName&quot;:&quot;U&quot;,&quot;glyphIndex&quot;:2,&quot;word&quot;:1}"></path><path d="M128.80322,354.75539l-2.7854,-4.1347h-1.12836v4.1347h-2.22517v-10.92067h3.969c1.40454,0 2.43164,0.2525 3.0813,0.7575c0.64966,0.505 0.9745,1.33352 0.9745,2.48556c0,0.9311 -0.19595,1.67282 -0.58785,2.22517c-0.3919,0.55235 -0.94819,0.9048 -1.66887,1.05735l2.91954,4.3951zM128.43236,347.17247c0,-0.55761 -0.14072,-0.9311 -0.42215,-1.12047c-0.28143,-0.18938 -0.74567,-0.28406 -1.3927,-0.28406h-1.72805v2.91165h1.63337c0.49974,0 0.88375,-0.04734 1.15204,-0.14203c0.26828,-0.09469 0.4616,-0.24198 0.57996,-0.44188c0.11836,-0.1999 0.17754,-0.50763 0.17754,-0.92321z" data-paper-data="{&quot;glyphName&quot;:&quot;R&quot;,&quot;glyphIndex&quot;:3,&quot;lastGlyphOfWord&quot;:true,&quot;word&quot;:1}"></path><path d="M149.32156,354.75539l-3.02212,-4.5608l-0.66282,0.76539v3.79541h-2.22517v-10.92067h2.22517v4.26095l3.57447,-4.26095h2.59603l-4.07158,4.70283l4.36353,6.21784z" data-paper-data="{&quot;glyphName&quot;:&quot;K&quot;,&quot;glyphIndex&quot;:4,&quot;firstGlyphOfWord&quot;:true,&quot;word&quot;:2}"></path><path d="M156.87818,354.75539v-10.92067h7.0937v1.96477h-4.86854v2.32774h4.10314v1.97266h-4.10314v2.6197h4.86854v2.03579z" data-paper-data="{&quot;glyphName&quot;:&quot;E&quot;,&quot;glyphIndex&quot;:5,&quot;word&quot;:2}"></path><path d="M173.92726,350.58912v4.16627h-2.24095v-4.11892l-3.41665,-6.80175h2.43032l2.13048,4.56869l2.17782,-4.56869h2.34353z" data-paper-data="{&quot;glyphName&quot;:&quot;Y&quot;,&quot;glyphIndex&quot;:6,&quot;lastGlyphOfWord&quot;:true,&quot;word&quot;:2}"></path><path d="M193.98005,345.87051v8.88488h-2.22517v-8.88488h-3.36142v-2.03579h8.948v2.03579z" data-paper-data="{&quot;glyphName&quot;:&quot;T&quot;,&quot;glyphIndex&quot;:7,&quot;firstGlyphOfWord&quot;:true,&quot;word&quot;:3}"></path><path d="M210.66616,349.29506c0,1.89902 -0.40111,3.32197 -1.20333,4.26885c-0.80222,0.94688 -1.96872,1.42032 -3.49951,1.42032c-1.61495,0 -2.8025,-0.49843 -3.56263,-1.49528c-0.76013,-0.99685 -1.1402,-2.39481 -1.1402,-4.19388c0,-1.80959 0.38007,-3.21018 1.1402,-4.20177c0.76013,-0.99159 1.94768,-1.48739 3.56263,-1.48739c1.62548,0 2.81565,0.4958 3.57052,1.48739c0.75487,0.99159 1.13231,2.39218 1.13231,4.20177zM208.36998,349.29506c0,-1.29407 -0.1828,-2.237 -0.5484,-2.8288c-0.3656,-0.5918 -0.98502,-0.8877 -1.85825,-0.8877c-0.87323,0 -1.49265,0.2959 -1.85825,0.8877c-0.3656,0.5918 -0.5484,1.53473 -0.5484,2.8288c0,1.29407 0.18543,2.237 0.55629,2.8288c0.37086,0.5918 0.98765,0.8877 1.85036,0.8877c0.87323,0 1.49265,-0.2959 1.85825,-0.8877c0.3656,-0.5918 0.5484,-1.53473 0.5484,-2.8288z" data-paper-data="{&quot;glyphName&quot;:&quot;O&quot;,&quot;glyphIndex&quot;:8,&quot;lastGlyphOfWord&quot;:true,&quot;word&quot;:3}"></path><path d="M222.17337,354.75539l3.61392,-10.92067h2.89587l3.62181,10.92067h-2.2804l-0.72594,-2.21727h-4.20572l-0.71016,2.21727zM225.72416,350.58912h2.94322l-1.46766,-4.51346z" data-paper-data="{&quot;glyphName&quot;:&quot;A&quot;,&quot;glyphIndex&quot;:9,&quot;firstGlyphOfWord&quot;:true,&quot;word&quot;:4}"></path><path d="M245.78747,352.94843c-0.46818,0.69964 -1.04288,1.21385 -1.72411,1.54262c-0.68123,0.32878 -1.51895,0.49317 -2.51317,0.49317c-3.38246,0 -5.07369,-1.89639 -5.07369,-5.68916c0,-1.9411 0.42873,-3.37457 1.28618,-4.30041c0.85745,-0.92584 2.09365,-1.38876 3.70861,-1.38876c1.06787,0 1.93847,0.18017 2.61181,0.54051c0.67334,0.36034 1.18623,0.83246 1.53868,1.41637l-1.72805,1.34141c-0.2525,-0.37875 -0.48396,-0.65229 -0.69438,-0.82063c-0.21042,-0.16833 -0.44977,-0.29458 -0.71805,-0.37875c-0.26828,-0.08417 -0.58917,-0.12625 -0.96266,-0.12625c-0.89427,0 -1.5755,0.28538 -2.04368,0.85614c-0.46818,0.57076 -0.70227,1.52421 -0.70227,2.86036c0,1.24672 0.21962,2.17782 0.65887,2.79329c0.43925,0.61547 1.1402,0.92321 2.10286,0.92321c0.64703,0 1.15072,-0.12362 1.51106,-0.37086c0.36034,-0.24724 0.6878,-0.57602 0.98239,-0.98633z" data-paper-data="{&quot;glyphName&quot;:&quot;C&quot;,&quot;glyphIndex&quot;:10,&quot;word&quot;:4}"></path><path d="M249.81697,354.75539l3.61392,-10.92067h2.89587l3.62181,10.92067h-2.2804l-0.72594,-2.21727h-4.20572l-0.71016,2.21727zM253.36776,350.58912h2.94322l-1.46766,-4.51346z" data-paper-data="{&quot;glyphName&quot;:&quot;A&quot;,&quot;glyphIndex&quot;:11,&quot;word&quot;:4}"></path><path d="M273.20225,349.29506c0,1.31511 -0.18149,2.37246 -0.54446,3.17204c-0.36297,0.79959 -0.91006,1.38086 -1.64126,1.74384c-0.7312,0.36297 -1.75962,0.54446 -3.08525,0.54446h-3.32986v-10.92067h3.29829c1.28881,0 2.31328,0.18675 3.07341,0.56024c0.76013,0.37349 1.32169,0.95608 1.68466,1.74778c0.36297,0.7917 0.54446,1.84247 0.54446,3.15232zM270.90606,349.27927c0,-0.95214 -0.09337,-1.65835 -0.28012,-2.11864c-0.18675,-0.46029 -0.50369,-0.79038 -0.95082,-0.99028c-0.44714,-0.1999 -1.10995,-0.29984 -1.98845,-0.29984h-0.85219v6.84909h0.85219c0.87849,0 1.53999,-0.10126 1.9845,-0.30379c0.44451,-0.20253 0.76145,-0.54051 0.95082,-1.01395c0.18938,-0.47344 0.28406,-1.18097 0.28406,-2.12259z" data-paper-data="{&quot;glyphName&quot;:&quot;D&quot;,&quot;glyphIndex&quot;:12,&quot;word&quot;:4}"></path><path d="M278.43112,354.75539v-10.92067h7.0937v1.96477h-4.86854v2.32774h4.10314v1.97266h-4.10314v2.6197h4.86854v2.03579z" data-paper-data="{&quot;glyphName&quot;:&quot;E&quot;,&quot;glyphIndex&quot;:13,&quot;word&quot;:4}"></path><path d="M299.50443,354.75539v-7.33831l-2.6197,4.5608h-1.28618l-2.58814,-4.5608v7.33831h-2.14626v-10.92067h2.56446l2.84853,5.18416l2.8722,-5.18416h2.50923v10.92067z" data-paper-data="{&quot;glyphName&quot;:&quot;M&quot;,&quot;glyphIndex&quot;:14,&quot;word&quot;:4}"></path><path d="M312.27678,354.75539h-5.27096v-1.71227h1.5229v-7.49612h-1.5229v-1.71227h5.27096v1.71227h-1.51501v7.49612h1.51501z" data-paper-data="{&quot;glyphName&quot;:&quot;I&quot;,&quot;glyphIndex&quot;:15,&quot;word&quot;:4}"></path><path d="M326.51678,352.94843c-0.46818,0.69964 -1.04288,1.21385 -1.72411,1.54262c-0.68123,0.32878 -1.51895,0.49317 -2.51317,0.49317c-3.38246,0 -5.07369,-1.89639 -5.07369,-5.68916c0,-1.9411 0.42873,-3.37457 1.28618,-4.30041c0.85745,-0.92584 2.09365,-1.38876 3.70861,-1.38876c1.06787,0 1.93847,0.18017 2.61181,0.54051c0.67334,0.36034 1.18623,0.83246 1.53868,1.41637l-1.72805,1.34141c-0.2525,-0.37875 -0.48396,-0.65229 -0.69438,-0.82063c-0.21042,-0.16833 -0.44977,-0.29458 -0.71805,-0.37875c-0.26828,-0.08417 -0.58917,-0.12625 -0.96266,-0.12625c-0.89427,0 -1.5755,0.28538 -2.04368,0.85614c-0.46818,0.57076 -0.70227,1.52421 -0.70227,2.86036c0,1.24672 0.21962,2.17782 0.65887,2.79329c0.43925,0.61547 1.1402,0.92321 2.10286,0.92321c0.64703,0 1.15072,-0.12362 1.51106,-0.37086c0.36034,-0.24724 0.6878,-0.57602 0.98239,-0.98633z" data-paper-data="{&quot;glyphName&quot;:&quot;C&quot;,&quot;glyphIndex&quot;:16,&quot;lastGlyphOfWord&quot;:true,&quot;word&quot;:4}"></path><path d="M338.76571,354.75539v-10.92067h7.0937v1.96477h-4.86854v2.32774h4.10314v1.97266h-4.10314v2.6197h4.86854v2.03579z" data-paper-data="{&quot;glyphName&quot;:&quot;E&quot;,&quot;glyphIndex&quot;:17,&quot;firstGlyphOfWord&quot;:true,&quot;word&quot;:5}"></path><path d="M350.24399,354.75539l3.65337,-5.47612l-3.55869,-5.44455h2.5329l2.26462,3.67705l2.34353,-3.67705h2.45399l-3.58236,5.39721l3.56658,5.52346h-2.50134l-2.34353,-3.76384l-2.37509,3.76384z" data-paper-data="{&quot;glyphName&quot;:&quot;X&quot;,&quot;glyphIndex&quot;:18,&quot;word&quot;:5}"></path><path d="M373.27419,352.94843c-0.46818,0.69964 -1.04288,1.21385 -1.72411,1.54262c-0.68123,0.32878 -1.51895,0.49317 -2.51317,0.49317c-3.38246,0 -5.07369,-1.89639 -5.07369,-5.68916c0,-1.9411 0.42873,-3.37457 1.28618,-4.30041c0.85745,-0.92584 2.09365,-1.38876 3.70861,-1.38876c1.06787,0 1.93847,0.18017 2.61181,0.54051c0.67334,0.36034 1.18623,0.83246 1.53868,1.41637l-1.72805,1.34141c-0.2525,-0.37875 -0.48396,-0.65229 -0.69438,-0.82063c-0.21042,-0.16833 -0.44977,-0.29458 -0.71805,-0.37875c-0.26828,-0.08417 -0.58917,-0.12625 -0.96266,-0.12625c-0.89427,0 -1.5755,0.28538 -2.04368,0.85614c-0.46818,0.57076 -0.70227,1.52421 -0.70227,2.86036c0,1.24672 0.21962,2.17782 0.65887,2.79329c0.43925,0.61547 1.1402,0.92321 2.10286,0.92321c0.64703,0 1.15072,-0.12362 1.51106,-0.37086c0.36034,-0.24724 0.6878,-0.57602 0.98239,-0.98633z" data-paper-data="{&quot;glyphName&quot;:&quot;C&quot;,&quot;glyphIndex&quot;:19,&quot;word&quot;:5}"></path><path d="M378.27423,354.75539v-10.92067h7.0937v1.96477h-4.86854v2.32774h4.10314v1.97266h-4.10314v2.6197h4.86854v2.03579z" data-paper-data="{&quot;glyphName&quot;:&quot;E&quot;,&quot;glyphIndex&quot;:20,&quot;word&quot;:5}"></path><path d="M390.70728,354.75539v-10.92067h2.22517v8.88488h4.59236v2.03579z" data-paper-data="{&quot;glyphName&quot;:&quot;L&quot;,&quot;glyphIndex&quot;:21,&quot;word&quot;:5}"></path><path d="M402.26446,354.75539v-10.92067h2.22517v8.88488h4.59236v2.03579z" data-paper-data="{&quot;glyphName&quot;:&quot;L&quot;,&quot;glyphIndex&quot;:22,&quot;word&quot;:5}"></path><path d="M413.82164,354.75539v-10.92067h7.0937v1.96477h-4.86854v2.32774h4.10314v1.97266h-4.10314v2.6197h4.86854v2.03579z" data-paper-data="{&quot;glyphName&quot;:&quot;E&quot;,&quot;glyphIndex&quot;:23,&quot;word&quot;:5}"></path><path d="M432.4094,354.75539l-3.97689,-7.80386v7.80386h-2.17782v-10.92067h2.88798l3.70072,7.36198v-7.36198h2.18571v10.92067z" data-paper-data="{&quot;glyphName&quot;:&quot;N&quot;,&quot;glyphIndex&quot;:24,&quot;word&quot;:5}"></path><path d="M449.63996,352.94843c-0.46818,0.69964 -1.04288,1.21385 -1.72411,1.54262c-0.68123,0.32878 -1.51895,0.49317 -2.51317,0.49317c-3.38246,0 -5.07369,-1.89639 -5.07369,-5.68916c0,-1.9411 0.42873,-3.37457 1.28618,-4.30041c0.85745,-0.92584 2.09365,-1.38876 3.70861,-1.38876c1.06787,0 1.93847,0.18017 2.61181,0.54051c0.67334,0.36034 1.18623,0.83246 1.53868,1.41637l-1.72805,1.34141c-0.2525,-0.37875 -0.48396,-0.65229 -0.69438,-0.82063c-0.21042,-0.16833 -0.44977,-0.29458 -0.71805,-0.37875c-0.26828,-0.08417 -0.58917,-0.12625 -0.96266,-0.12625c-0.89427,0 -1.5755,0.28538 -2.04368,0.85614c-0.46818,0.57076 -0.70227,1.52421 -0.70227,2.86036c0,1.24672 0.21962,2.17782 0.65887,2.79329c0.43925,0.61547 1.1402,0.92321 2.10286,0.92321c0.64703,0 1.15072,-0.12362 1.51106,-0.37086c0.36034,-0.24724 0.6878,-0.57602 0.98239,-0.98633z" data-paper-data="{&quot;glyphName&quot;:&quot;C&quot;,&quot;glyphIndex&quot;:25,&quot;word&quot;:5}"></path><path d="M454.64001,354.75539v-10.92067h7.0937v1.96477h-4.86854v2.32774h4.10314v1.97266h-4.10314v2.6197h4.86854v2.03579z" data-paper-data="{&quot;glyphName&quot;:&quot;E&quot;,&quot;glyphIndex&quot;:26,&quot;word&quot;:5}"></path><path d="M469.4797,353.61124c0,0.4524 -0.10258,0.7746 -0.30774,0.96661c-0.20516,0.19201 -0.53393,0.28801 -0.98633,0.28801c-0.49448,0 -0.83115,-0.10784 -1.01,-0.32352c-0.17885,-0.21568 -0.26828,-0.52604 -0.26828,-0.9311c0,-0.43136 0.09469,-0.74961 0.28406,-0.95477c0.18938,-0.20516 0.52078,-0.30774 0.99422,-0.30774c0.48396,0 0.82063,0.09995 1.01,0.29984c0.18938,0.1999 0.28406,0.52078 0.28406,0.96266z" data-paper-data="{&quot;glyphName&quot;:&quot;.&quot;,&quot;glyphIndex&quot;:27,&quot;lastGlyphOfWord&quot;:true,&quot;word&quot;:5}"></path></g><g data-paper-data="{&quot;isPrimaryText&quot;:true}"><path d="M80.5203,323.96247v-67.91004h4.68835v63.6479h27.23032v4.26214z" data-paper-data="{&quot;glyphName&quot;:&quot;L&quot;,&quot;glyphIndex&quot;:0,&quot;firstGlyphOfWord&quot;:true,&quot;word&quot;:1}"></path><path d="M195.10862,323.96247v-48.2095l0.52093,-9.99234h-0.18943l-26.61467,58.20184h-1.51543l-26.70939,-58.39127l0.3315,9.0452v49.34607h-4.68835v-67.91004h4.35685l25.33603,54.69742c0.15786,0.31571 0.3315,0.74193 0.52093,1.27864c0.18943,0.53671 0.39464,1.07343 0.61564,1.61014c0.31571,0.82086 0.64721,1.73643 0.9945,2.74671h0.28414l0.52093,-1.51543c0.03157,-0.12629 0.56828,-1.62593 1.61014,-4.49892l24.95718,-54.31856h4.16742v67.91004z" data-paper-data="{&quot;glyphName&quot;:&quot;M&quot;,&quot;glyphIndex&quot;:1,&quot;word&quot;:1}"></path><path d="M240.08205,325.05169c-5.74599,-0.28414 -10.71848,-2.0995 -14.91748,-5.44606l2.88878,-3.50442c3.91485,3.12557 8.12963,4.68835 12.64434,4.68835c5.33556,0.03157 9.3767,-1.04975 12.12341,-3.24396c2.74671,-2.19421 4.12007,-5.26453 4.12007,-9.21095c0,-3.47285 -0.92346,-6.24324 -2.77039,-8.31117c-1.84693,-2.06793 -5.8486,-4.88567 -12.00502,-8.45324c-6.88256,-4.00957 -11.23941,-7.36402 -13.07055,-10.06338c-1.83114,-2.69935 -2.74671,-5.81703 -2.74671,-9.35302c0,-4.79885 1.86271,-8.87156 5.58813,-12.21812c3.72542,-3.34657 8.69792,-5.01985 14.91748,-5.01985c5.74599,0.28414 10.71848,2.0995 14.91748,5.44606l-2.88878,3.50442c-3.91485,-3.12557 -8.12963,-4.68835 -12.64434,-4.68835c-4.60942,0 -8.26381,1.16814 -10.96316,3.50442c-2.69935,2.33628 -4.04903,5.30399 -4.04903,8.90313c0,3.47285 0.92346,6.23535 2.77039,8.28749c1.84693,2.05214 5.83281,4.84621 11.95766,8.3822c6.34585,3.59914 10.56852,6.79574 12.66802,9.58981c2.0995,2.79407 3.14925,6.00646 3.14925,9.63716c0,5.20928 -1.80746,9.45563 -5.42238,12.73905c-3.61492,3.28342 -9.03731,4.89356 -16.26715,4.83042z" data-paper-data="{&quot;glyphName&quot;:&quot;S&quot;,&quot;glyphIndex&quot;:2,&quot;word&quot;:1}"></path><path d="M287.66012,323.96247v-67.91004h31.72924v4.30949h-27.04089v27.23032h25.09925v4.26214h-25.09925v27.84596h28.60367v4.26214z" data-paper-data="{&quot;glyphName&quot;:&quot;E&quot;,&quot;glyphIndex&quot;:3,&quot;word&quot;:1}"></path><path d="M345.08846,323.96247v-67.91004h17.00119c11.27098,0 19.84261,2.80985 25.71489,8.42956c5.87228,5.61971 8.80842,13.81248 8.80842,24.57832c0,10.35541 -3.14925,18.76129 -9.44774,25.21764c-6.29849,6.45635 -14.98851,9.68452 -26.07007,9.68452zM349.77682,260.36193v59.33841h10.65534c10.07127,0 17.80626,-2.61253 23.20496,-7.8376c5.39871,-5.22506 8.09806,-12.76273 8.09806,-22.613c0,-19.25854 -10.11863,-28.88781 -30.35588,-28.88781z" data-paper-data="{&quot;glyphName&quot;:&quot;D&quot;,&quot;glyphIndex&quot;:4,&quot;word&quot;:1}"></path><path d="M469.4797,296.82687c0,18.87969 -8.0507,28.31953 -24.15211,28.31953c-15.31212,0 -22.96818,-9.09256 -22.96818,-27.27767v-41.81629h4.64099v41.15329c0,15.75412 6.40899,23.63118 19.22697,23.63118c12.40755,0 18.61133,-7.65606 18.61133,-22.96818v-41.81629h4.64099z" data-paper-data="{&quot;glyphName&quot;:&quot;U&quot;,&quot;glyphIndex&quot;:5,&quot;lastGlyphOfWord&quot;:true,&quot;word&quot;:1}"></path></g><g data-paper-data="{&quot;fillRule&quot;:&quot;nonzero&quot;,&quot;fillRuleOriginal&quot;:&quot;nonzero&quot;,&quot;isIcon&quot;:true,&quot;iconStyle&quot;:&quot;standalone&quot;,&quot;selectedEffects&quot;:{&quot;container&quot;:&quot;&quot;,&quot;transformation&quot;:&quot;&quot;,&quot;pattern&quot;:&quot;&quot;},&quot;bounds&quot;:{&quot;x&quot;:105.03580111017612,&quot;y&quot;:115.00000000000001,&quot;width&quot;:339.9283977796477,&quot;height&quot;:105.62419174498739},&quot;iconType&quot;:&quot;initial&quot;,&quot;initialText&quot;:&quot;lms&quot;,&quot;rawInitialId&quot;:952,&quot;suitableAsStandaloneIcon&quot;:true}"><path d="M252.8762,172.34689c-7.13384,10.33678 -14.85003,20.09121 -23.14858,29.2633c-3.78531,4.07647 -7.5706,9.31767 -12.52062,12.08384c-5.38678,3.05737 -10.91915,0.58235 -12.95737,-5.09559c-2.18384,-5.53237 -0.87353,-12.22943 0.29118,-17.7618c0.87353,-3.9309 1.89265,-7.86178 3.20294,-11.64709c0.43677,0 0.87353,-0.14559 1.3103,-0.43677c11.21031,-8.44414 21.25593,-17.90739 30.13683,-28.68095c4.22206,-5.24119 8.29855,-10.77355 11.93827,-16.45151c3.34853,-5.24119 7.71619,-10.91915 4.95,-17.32504c-0.43677,-0.87353 -2.03824,-1.60147 -3.05737,-1.16471c-12.22943,4.65884 -21.40152,15.14121 -29.40889,25.18682c-8.00737,10.19121 -14.85003,21.25593 -19.65445,33.33978c-1.16471,3.05737 -2.18384,6.11472 -3.05737,9.17208c-0.29118,0.14559 -0.58235,0.43677 -0.72794,0.72794c-10.77355,16.01474 -32.46625,6.11472 -46.44275,1.3103c-11.3559,-3.9309 -20.2368,-7.42502 -28.68095,-8.15296c-6.98825,-0.58235 -15.2868,0.43677 -19.50886,6.55149c-2.03824,2.91178 2.62059,5.67796 4.65884,2.76618c2.475,-3.49412 7.86178,-3.9309 11.79268,-3.9309c4.22206,0 8.44414,0.72794 12.37502,2.03824c8.8809,2.62059 21.6927,7.27943 30.28242,10.33678c11.06474,3.9309 24.45888,4.95 34.06772,-1.74706c-1.16471,6.26031 -1.89265,12.95737 0.72794,18.78092c2.18384,4.65884 6.26031,8.44414 11.3559,9.02649c6.26031,0.72794 11.50149,-3.20294 15.57797,-7.42502c11.50149,-11.64709 21.83827,-24.45888 31.15595,-37.9986c2.03824,-2.76618 -2.62059,-5.53237 -4.65884,-2.76618zM225.79672,146.28653c6.84266,-8.8809 15.2868,-19.36327 25.62358,-24.60446c-0.43677,2.475 -2.475,4.95 -3.49412,6.69706c-1.45588,2.32941 -2.91178,4.51325 -4.36765,6.69706c-3.49412,5.09559 -7.27943,9.90002 -11.21031,14.55886c-6.4059,7.27943 -13.39415,14.12209 -20.81917,20.2368c3.78531,-8.29855 8.73531,-16.16033 14.26768,-23.58534zM260.15561,168.70717c-1.3103,-0.87353 -2.76618,-0.29118 -3.63972,1.01912c-5.96913,8.15296 -10.33678,17.32504 -13.10296,27.07948c-0.29118,0.87353 0,1.74706 0.43677,2.32941c0.72794,1.74706 2.91178,2.91178 4.36765,1.01912c8.73531,-11.21031 18.63533,-21.40152 29.55448,-30.42801c0.72794,-0.72794 6.26031,-6.11472 7.42502,-4.95c1.3103,1.3103 -2.91178,7.13384 -3.49412,8.15296c-3.78531,6.84266 -7.71619,13.53974 -11.50149,20.38239c-0.87353,1.60147 -0.14559,3.05737 1.16471,3.78531c1.01912,1.01912 2.475,1.3103 3.63972,0c4.80443,-6.11472 10.19121,-11.93827 16.01474,-17.03386c1.60147,-1.3103 3.20294,-2.76618 4.80443,-4.07647c0.29118,-0.14559 0.58235,-0.29118 0.87353,-0.43677c-1.60147,3.9309 -3.78531,7.5706 -5.53237,11.50149c-1.3103,3.05737 -2.03824,6.55149 0.14559,9.46325c1.89265,2.76618 5.67796,3.20294 8.73531,1.89265c3.49412,-1.3103 6.26031,-4.51325 9.17208,-6.84266c3.20294,-2.76618 6.4059,-5.38678 9.60884,-8.15296c2.76618,-2.18384 -1.16471,-6.11472 -3.78531,-3.78531c-3.20294,2.62059 -6.55149,5.38678 -9.75443,8.00737c-1.60147,1.45588 -3.34853,2.91178 -5.09559,4.36765c-0.87353,0.72794 -2.475,2.03824 -3.78531,1.60147c-3.05737,-0.72794 1.3103,-7.71619 2.03824,-9.17208c1.45588,-3.05737 4.22206,-6.69706 4.22206,-10.33678c-0.14559,-3.49412 -3.49412,-5.24119 -6.69706,-4.36765c-3.20294,1.01912 -6.26031,4.22206 -8.73531,6.4059c-0.72794,0.72794 -1.45588,1.3103 -2.18384,2.03824c0.14559,-0.29118 0.29118,-0.58235 0.43677,-0.72794c2.475,-4.36765 8.44414,-11.79268 3.63972,-16.45151c-5.09559,-5.09559 -11.79268,1.89265 -15.57797,5.09559c-4.95,4.07647 -9.75443,8.58972 -14.41327,13.24856c-1.89265,2.03824 -3.63972,4.07647 -5.53237,6.11472c2.18384,-4.51325 4.65884,-8.8809 7.5706,-12.95737c0.87353,-1.3103 0.29118,-3.05737 -1.01912,-3.78531zM327.99988,204.37637c9.60884,-7.42502 19.21768,-14.55886 28.82654,-21.83827c0.14559,-0.14559 0.29118,-0.14559 0.43677,-0.29118c11.50149,-5.67796 27.66182,1.3103 38.87214,5.24119c11.50149,3.9309 20.2368,7.5706 28.82654,8.15296c6.98825,0.58235 15.14121,-0.43677 19.50886,-6.55149c2.03824,-2.91178 -2.76618,-5.67796 -4.80443,-2.76618c-2.475,3.49412 -7.86178,3.9309 -11.64709,3.9309c-4.36765,0.14559 -8.44414,-0.72794 -12.52062,-2.03824c-8.73531,-2.62059 -21.6927,-7.27943 -30.28242,-10.33678c-9.46325,-3.49412 -20.81917,-4.65884 -29.99124,-0.58235c-0.29118,0.14559 -0.72794,0.29118 -1.16471,0.58235c0,0 -0.14559,0.14559 -0.29118,0.29118c-2.03824,1.01912 -4.07647,2.475 -5.82353,4.22206c-6.69706,5.09559 -13.39415,10.19121 -20.09121,15.2868c-1.16471,0.87353 -2.32941,1.74706 -3.63972,2.62059c-1.16471,-1.16471 -2.32941,-2.32941 -3.20294,-3.63972c-4.51325,-7.27943 -3.05737,-16.59709 3.34853,-22.12946c1.74706,-1.45588 3.78531,-2.62059 5.82353,-3.20294c1.45588,-0.43677 3.63972,-0.72794 3.05737,1.45588c-0.58235,2.475 -2.76618,4.80443 -4.51325,6.55149c-1.74706,2.03824 -3.9309,3.78531 -6.11472,5.38678c-2.91178,2.03824 -0.14559,6.84266 2.76618,4.80443c3.78531,-2.76618 7.27943,-5.96913 10.04561,-9.75443c2.475,-3.20294 5.24119,-8.00737 2.03824,-11.79268c-5.53237,-6.69706 -16.16033,1.16471 -19.94564,5.96913c-5.24119,6.84266 -5.96913,16.01474 -2.18384,23.58534c0.87353,1.89265 2.03824,3.49412 3.34853,5.09559c0.43677,0.43677 0.87353,0.87353 1.45588,1.3103c-0.87353,1.01912 -1.45588,2.03824 -1.74706,3.34853c-1.16471,3.49412 1.01912,8.15296 5.09559,8.29855c4.51325,0.29118 6.98825,-4.65884 5.82353,-8.58972c-0.29118,-1.01912 -0.72794,-1.89265 -1.3103,-2.62059z" data-paper-data="{&quot;isPathIcon&quot;:true}"></path></g></g></g></svg>